<svg width="1170" height="434" viewBox="0 0 1170 434" xmlns="http://www.w3.org/2000/svg" xmlns:xlink="http://www.w3.org/1999/xlink">
    <path id="Path" fill="#fdd85e" stroke="none" d="M 0 -0.190002 L 336.600006 -0.190002 L 336.600006 336.419983 L 0 336.419983 Z"/>
    <path id="path1" fill="#ffffff" stroke="none" d="M 232.289993 183.580002 L 297.590027 158.580017 C 302.77002 184.860001 300.470001 208.546661 290.690002 229.639999 C 280.910004 250.733337 263.640015 268.563354 238.880005 283.130005 C 199.693329 306.203339 163.15332 310.466675 129.259995 295.920013 C 102.339996 284.17334 79.673332 262.659973 61.259995 231.380005 C 39.259998 194.046677 31.806665 159.046661 38.899998 126.380005 C 45.993332 93.713348 64.456665 68.606659 94.290001 51.059998 C 127.829994 31.32666 160.803329 26.82666 193.209991 37.559998 C 225.616653 48.293335 254.849991 76.76001 280.910004 122.959991 L 131.5 210.889999 C 142.339996 228.329987 155.246658 239.259995 170.220001 243.679993 C 185.193329 248.099991 199.553329 246.266663 213.300003 238.179993 C 222.633331 232.693329 228.983337 225.526657 232.349991 216.679993 C 235.71666 207.833328 235.696655 196.800003 232.289993 183.580002 Z M 200.209991 121.279999 C 189.62999 104.266663 177.449997 93.766663 163.669998 89.779999 C 149.889999 85.793335 136.919998 87.380005 124.759995 94.540009 C 111.739998 102.200012 103.776665 113.269989 100.869995 127.75 C 97.963326 142.230011 101.366661 157.563324 111.080002 173.75 Z"/>
    <path id="path2" fill="#000000" stroke="none" d="M 358.120026 224.669998 L 421.790009 218.479996 C 425.623352 239.853333 433.393341 255.550003 445.100006 265.570007 C 456.806671 275.590027 472.613342 280.590027 492.52002 280.570007 C 513.58667 280.570007 529.466675 276.109985 540.159973 267.190002 C 550.853333 258.27002 556.186646 247.843338 556.159973 235.910004 C 556.339111 228.800659 553.94574 221.865616 549.419983 216.380005 C 544.919983 211.006668 537.070007 206.339996 525.869995 202.380005 C 518.223328 199.713333 500.763306 194.996674 473.490021 188.229996 C 438.410034 179.563339 413.796692 168.896667 399.650024 156.230011 C 379.763336 138.396667 369.820007 116.660004 369.820007 91.019989 C 369.799469 74.537811 374.671906 58.42041 383.820007 44.709991 C 393.153351 30.343323 406.636688 19.399994 424.27002 11.880005 C 441.903351 4.360016 463.16333 0.603333 488.050018 0.609985 C 528.716675 0.609985 559.333313 9.526672 579.899963 27.360016 C 600.466675 45.193359 611.26001 68.990021 612.279968 98.75 L 546.849976 101.630005 C 544.049988 84.963348 538.049988 72.98999 528.849976 65.709991 C 519.649963 58.429993 505.839996 54.753326 487.420013 54.679993 C 468.41333 54.679993 453.529999 58.58667 442.77002 66.399994 C 435.870026 71.41333 432.420013 78.119995 432.420013 86.519989 C 432.420013 94.179993 435.663361 100.736664 442.150024 106.190002 C 450.403351 113.123322 470.446655 120.343323 502.279999 127.850006 C 534.113281 135.356689 557.656616 143.130005 572.909973 151.170013 C 587.611145 158.701996 599.988892 170.087769 608.719971 184.110001 C 617.32666 198.029999 621.633301 215.233337 621.639954 235.720001 C 621.65741 254.243073 616.282043 272.370605 606.169983 287.889984 C 595.829956 304.09668 581.246643 316.143341 562.419983 324.029999 C 543.593323 331.916656 520.089966 335.859985 491.910004 335.859985 C 450.929993 335.859985 419.466675 326.389984 397.52002 307.450012 C 375.573334 288.51001 362.440002 260.916687 358.120026 224.669998 Z"/>
    <path id="path3" fill="#000000" stroke="none" d="M 627.219971 6.059998 L 692.659973 6.059998 L 692.659973 181.559998 C 692.659973 209.419998 693.469971 227.473343 695.089966 235.720001 C 697.565491 248.481049 704.693176 259.867523 715.089966 267.670013 C 725.629944 275.670013 740.033325 279.670013 758.299988 279.670013 C 776.873291 279.670013 790.873291 275.873352 800.299988 268.279999 C 809.726685 260.686646 815.393311 251.353317 817.299988 240.279999 C 819.213318 229.220001 820.169983 210.886673 820.169983 185.279999 L 820.169983 6.059998 L 885.599976 6.059998 L 885.599976 176.279999 C 885.599976 215.180008 883.829956 242.663345 880.289978 258.730011 C 876.75 274.796661 870.22998 288.356659 860.72998 299.410004 C 851.22998 310.463318 838.519958 319.266663 822.599976 325.820007 C 806.679993 332.373322 785.899963 335.65332 760.26001 335.660004 C 729.306641 335.660004 705.839966 332.08667 689.859985 324.940002 C 673.879944 317.793335 661.243286 308.506653 651.950012 297.079987 C 642.669983 285.660004 636.553284 273.686676 633.599976 261.160004 C 629.333313 242.593338 627.196655 215.186661 627.190002 178.940002 Z"/>
    <path id="path4" fill="#000000" stroke="none" d="M 899.419983 6.059998 L 1028.960083 6.059998 C 1054.593384 6.059998 1073.710083 7.126678 1086.310059 9.26001 C 1098.426025 11.205231 1109.971313 15.771484 1120.140015 22.640015 C 1130.349121 29.69104 1138.847534 38.941223 1145.01001 49.709991 C 1151.720459 61.205597 1155.177246 74.310181 1155.01001 87.619995 C 1155.069458 118.009552 1137.192383 145.572083 1109.420044 157.910004 C 1129.17334 163.66333 1144.356689 173.466675 1154.970093 187.319992 C 1165.583374 201.17334 1170.886719 217.453339 1170.880005 236.160004 C 1170.830322 251.09494 1167.314697 265.814514 1160.609985 279.160004 C 1154.248291 292.49527 1144.586304 303.984985 1132.540039 312.540009 C 1120.67334 320.859985 1106.040039 325.97998 1088.640015 327.899994 C 1077.73999 329.080017 1051.439941 329.816681 1009.739929 330.109985 L 899.419983 330.109985 Z M 964.820007 59.98999 L 964.820007 134.929993 L 1007.700012 134.929993 C 1033.200073 134.929993 1049.043457 134.559998 1055.230103 133.820007 C 1066.430054 132.486664 1075.236694 128.619995 1081.650024 122.220001 C 1088.063354 115.820007 1091.266724 107.383331 1091.26001 96.910004 C 1091.26001 86.910004 1088.496704 78.766663 1082.970093 72.480011 C 1077.443359 66.193329 1069.226685 62.399994 1058.320068 61.100006 C 1051.826782 60.359985 1033.18335 59.98999 1002.389954 59.98999 Z M 964.820007 188.860001 L 964.820007 275.51001 L 1025.420044 275.51001 C 1049 275.51001 1063.960083 274.843323 1070.300049 273.51001 C 1080.02002 271.743347 1087.943359 267.436646 1094.070068 260.589996 C 1100.196655 253.743332 1103.253296 244.566666 1103.23999 233.059998 C 1103.23999 223.333328 1100.883301 215.080002 1096.170044 208.300003 C 1091.456787 201.520004 1084.636719 196.583344 1075.710083 193.490005 C 1066.796753 190.396667 1047.463379 188.850006 1017.710022 188.850006 Z"/>
    <path id="path5" fill="#000000" stroke="none" d="M 68.529999 390.470001 L 63.099998 393.850006 C 58.433331 387.616669 52.036667 384.5 43.91 384.5 C 37.901516 384.316193 32.074928 386.574677 27.76 390.76001 C 23.578653 394.694916 21.248125 400.209045 21.339998 405.950012 C 21.330847 409.794403 22.349321 413.571381 24.289999 416.889984 C 26.191061 420.263336 29.001017 423.035187 32.399998 424.889984 C 35.947361 426.808868 39.927296 427.786652 43.959999 427.730011 C 51.470284 427.873596 58.591805 424.398438 63.099998 418.389984 L 68.529999 421.959991 C 65.979446 425.796295 62.442055 428.874268 58.290001 430.869995 C 53.71727 433.044647 48.70269 434.1297 43.639999 434.040009 C 35.233334 434.040009 28.256668 431.373352 22.710001 426.040009 C 17.291845 420.986511 14.277807 413.867706 14.42 406.459991 C 14.394316 401.412811 15.738758 396.453217 18.309999 392.109985 C 20.848566 387.741089 24.549028 384.161774 29.000002 381.769989 C 33.670555 379.255157 38.90596 377.974701 44.209999 378.049988 C 47.677322 378.039948 51.124023 378.583435 54.419998 379.660004 C 57.413689 380.592468 60.231941 382.015106 62.759995 383.869995 C 65.09111 385.677155 67.050468 387.918365 68.529999 390.470001 Z"/>
    <path id="path6" fill="#000000" stroke="none" d="M 111.879997 378.049988 C 119.653488 377.865601 127.111832 381.122681 132.259995 386.950012 C 142.213486 397.995544 142.035217 414.827759 131.849991 425.660004 C 126.669998 431.220001 120.003334 434 111.849998 434 C 103.696663 434 97.029999 431.220001 91.849998 425.660004 C 81.654335 414.852814 81.471527 398.026123 91.43 387 C 96.582161 381.131683 104.073395 377.853149 111.879997 378.049988 Z M 111.879997 384.75 C 106.316544 384.692841 100.986771 386.983765 97.199997 391.059998 C 93.17672 395.093292 90.958122 400.583862 91.049995 406.279999 C 91.029358 410.049438 91.994614 413.758759 93.849998 417.040009 C 95.607643 420.257721 98.225052 422.923615 101.409996 424.73999 C 107.90799 428.353912 115.812012 428.353912 122.309998 424.73999 C 125.494949 422.923615 128.11235 420.257721 129.869995 417.040009 C 131.725388 413.758759 132.690643 410.049438 132.669998 406.279999 C 132.778229 400.567108 130.553879 395.056793 126.509995 391.019989 C 122.722519 386.967316 117.406693 384.69223 111.860001 384.75 Z"/>
    <path id="path7" fill="#000000" stroke="none" d="M 157.289993 379.420013 L 164.130005 379.420013 L 164.130005 388.950012 C 166.539444 385.597687 169.64328 382.80423 173.229996 380.76001 C 176.561859 378.950989 180.298843 378.018463 184.089996 378.049988 C 187.839447 377.977203 191.525803 379.021515 194.679993 381.049988 C 197.724854 383.023682 200.102112 385.87149 201.5 389.220001 C 202.973328 392.640015 203.706665 397.973328 203.699997 405.220001 L 203.699997 432.609985 L 196.849991 432.609985 L 196.849991 407.279999 C 196.849991 401.146667 196.596664 397.053314 196.089996 395 C 195.545151 391.898743 193.931854 389.08609 191.529999 387.049988 C 188.982727 385.184357 185.874115 384.245758 182.720001 384.389984 C 178.635208 384.369873 174.681366 385.829926 171.589996 388.5 C 168.399185 391.11087 166.128296 394.674896 165.110001 398.670013 C 164.443329 401.33667 164.110001 406.160004 164.110001 413.139984 L 164.110001 432.660004 L 157.270004 432.660004 Z"/>
    <path id="path8" fill="#000000" stroke="none" d="M 250.12999 385.279999 L 245.729996 389.829987 C 242.070007 386.269989 238.490005 384.48999 234.990005 384.48999 C 232.870819 384.451233 230.820877 385.244629 229.279999 386.700012 C 227.775146 387.980072 226.905579 389.85437 226.899994 391.829987 C 226.946716 393.664459 227.657333 395.419708 228.899994 396.769989 C 230.233322 398.369995 232.976669 400.246674 237.130005 402.399994 C 242.229996 405.06665 245.696655 407.606659 247.529984 410.019989 C 249.302139 412.448761 250.245346 415.383545 250.219986 418.389984 C 250.300278 422.569305 248.63298 426.59256 245.62001 429.48999 C 242.566269 432.515747 238.407211 434.159851 234.110001 434.040009 C 231.062988 434.04895 228.053818 433.365051 225.309998 432.040009 C 222.599472 430.76828 220.225677 428.877472 218.380005 426.519989 L 222.690002 421.619995 C 226.183334 425.573334 229.889999 427.546661 233.809998 427.540009 C 236.397018 427.598846 238.906128 426.652557 240.809998 424.899994 C 242.638657 423.354919 243.69548 421.083984 243.699997 418.690002 C 243.718216 416.772797 243.039474 414.914246 241.789993 413.459991 C 240.523331 411.959991 237.649994 410.06665 233.169998 407.779999 C 228.356659 405.313324 225.089996 402.869995 223.369995 400.450012 C 221.635559 398.045166 220.723679 395.144684 220.770004 392.179993 C 220.666458 388.389374 222.170227 384.731659 224.910004 382.109985 C 227.716019 379.422913 231.48703 377.980835 235.369995 378.109985 C 240.249985 378.069977 245.169983 380.459991 250.12999 385.279999 Z"/>
    <path id="path9" fill="#000000" stroke="none" d="M 273.230011 359.660004 L 280.080017 359.660004 L 280.080017 379.420013 L 290.940002 379.420013 L 290.940002 385.339996 L 280.080017 385.339996 L 280.080017 432.630005 L 273.230011 432.630005 L 273.230011 385.339996 L 263.890015 385.339996 L 263.890015 379.420013 L 273.230011 379.420013 Z"/>
    <path id="path10" fill="#000000" stroke="none" d="M 303.620026 379.420013 L 310.620026 379.420013 L 310.620026 387.190002 C 312.352142 384.492462 314.594055 382.158844 317.220001 380.320007 C 319.35553 378.863525 321.875214 378.073517 324.460022 378.049988 C 326.602295 378.120758 328.68985 378.744263 330.52002 379.859985 L 326.950012 385.630005 C 325.816925 385.083099 324.586395 384.766968 323.330017 384.700012 C 320.856506 384.780609 318.502472 385.782837 316.730011 387.51001 C 314.610016 389.389984 312.996674 392.299988 311.890015 396.23999 C 311.036682 399.273346 310.613342 405.403351 310.620026 414.630005 L 310.620026 432.630005 L 303.620026 432.630005 Z"/>
    <path id="path11" fill="#000000" stroke="none" d="M 340.470001 379.420013 L 347.320007 379.420013 L 347.320007 404.279999 C 347.320007 410.353333 347.653351 414.526642 348.320007 416.799988 C 349.226105 419.95462 351.211731 422.690582 353.930023 424.529999 C 356.845703 426.469635 360.289276 427.461487 363.790009 427.369995 C 367.241486 427.4729 370.640259 426.50531 373.52002 424.600006 C 376.106079 422.852814 378.042969 420.300751 379.029999 417.339996 C 379.696655 415.293335 380.029999 410.940002 380.029999 404.279999 L 380.029999 379.420013 L 387.029999 379.420013 L 387.029999 405.529999 C 387.029999 412.863342 386.17334 418.389984 384.460022 422.109985 C 382.830292 425.737854 380.133911 428.783081 376.730011 430.839996 C 373.290009 432.953339 368.980011 434.006683 363.800018 434 C 358.610016 434 354.290009 432.950012 350.800018 430.839996 C 347.363342 428.77951 344.649048 425.705383 343.029999 422.040009 C 341.323334 418.273315 340.466675 412.606659 340.460022 405.040009 Z"/>
    <path id="path12" fill="#000000" stroke="none" d="M 458.890015 390.470001 L 453.420013 393.850006 C 448.753357 387.616669 442.353333 384.5 434.220001 384.5 C 428.214569 384.31662 422.391235 386.575226 418.080017 390.76001 C 413.898682 394.694916 411.568146 400.209045 411.660004 405.950012 C 411.666016 409.799011 412.701843 413.576324 414.660004 416.889984 C 416.561066 420.263336 419.371033 423.035187 422.77002 424.889984 C 433.230316 430.421112 446.148987 427.685883 453.470001 418.389984 L 458.900024 421.959991 C 456.349457 425.796295 452.812073 428.874268 448.660004 430.869995 C 444.08728 433.044647 439.072693 434.1297 434.01001 434.040009 C 425.603363 434.040009 418.626678 431.373352 413.080017 426.040009 C 407.666473 421.00589 404.64267 413.91153 404.76001 406.519989 C 404.734344 401.472809 406.078766 396.513214 408.650024 392.170013 C 411.186066 387.799133 414.887177 384.219208 419.340027 381.829987 C 424.010559 379.315155 429.245972 378.034698 434.550018 378.109985 C 438.01062 378.102081 441.450409 378.645538 444.740021 379.720001 C 447.733704 380.652466 450.551971 382.075104 453.080017 383.929993 C 455.417236 385.718231 457.389587 387.938385 458.890015 390.470001 Z"/>
    <path id="path13" fill="#000000" stroke="none" d="M 483.02002 359.660004 L 489.870026 359.660004 L 489.870026 379.420013 L 500.730011 379.420013 L 500.730011 385.339996 L 489.870026 385.339996 L 489.870026 432.630005 L 483.02002 432.630005 L 483.02002 385.339996 L 473.680023 385.339996 L 473.680023 379.420013 L 483.02002 379.420013 Z"/>
    <path id="path14" fill="#000000" stroke="none" d="M 518.419983 357.51001 C 519.925598 357.48587 521.37384 358.086914 522.419983 359.170013 C 523.493408 360.221893 524.0896 361.667236 524.070007 363.170013 C 524.048157 366.27417 521.53418 368.783661 518.429993 368.799988 C 516.921448 368.828857 515.470154 368.222931 514.429993 367.130005 C 513.349548 366.082855 512.752075 364.634338 512.779968 363.130005 C 512.760376 361.627228 513.356567 360.181885 514.429993 359.130005 C 515.475769 358.057007 516.922241 357.469727 518.419983 357.51001 Z M 515.019958 379.420013 L 521.859985 379.420013 L 521.859985 432.630005 L 515.019958 432.630005 Z"/>
    <path id="path15" fill="#000000" stroke="none" d="M 566.25 378.049988 C 574.023499 377.865601 581.481812 381.122681 586.630005 386.950012 C 596.590332 397.994476 596.407593 414.834229 586.209961 425.660004 C 581.043274 431.220001 574.376648 434 566.209961 434 C 558.043274 434 551.376648 431.220001 546.209961 425.660004 C 536.014343 414.852814 535.831482 398.026123 545.789978 387 C 550.944397 381.128967 558.439941 377.850159 566.25 378.049988 Z M 566.25 384.75 C 560.686035 384.690338 555.355286 386.981689 551.570007 391.059998 C 547.546692 395.093292 545.328125 400.583862 545.419983 406.279999 C 545.40094 410.047943 546.362427 413.756042 548.209961 417.040009 C 549.973572 420.253326 552.589539 422.917786 555.769958 424.73999 C 562.271545 428.35379 570.178406 428.35379 576.679993 424.73999 C 579.860413 422.917786 582.47644 420.253326 584.23999 417.040009 C 586.090637 413.756836 587.055542 410.048798 587.039978 406.279999 C 587.141235 400.56842 584.917969 395.060699 580.880005 391.019989 C 577.092529 386.967316 571.776672 384.69223 566.22998 384.75 Z"/>
    <path id="path16" fill="#000000" stroke="none" d="M 611.649963 379.420013 L 618.5 379.420013 L 618.5 388.950012 C 620.906799 385.595367 624.01123 382.801392 627.599976 380.76001 C 630.919189 378.955505 634.64209 378.023041 638.419983 378.049988 C 642.166382 377.976776 645.84967 379.021179 649 381.049988 C 652.048523 383.022156 654.429443 385.870148 655.829956 389.220001 C 657.289978 392.640015 658.023315 397.973328 658.029968 405.220001 L 658.029968 432.609985 L 651.219971 432.609985 L 651.219971 407.279999 C 651.219971 401.146667 650.966614 397.053314 650.459961 395 C 649.911682 391.897675 648.294922 389.085083 645.889954 387.049988 C 643.346497 385.184357 640.241028 384.245636 637.089966 384.389984 C 633.005188 384.369873 629.051331 385.829926 625.959961 388.5 C 622.762756 391.105133 620.490417 394.671478 619.47998 398.670013 C 618.813293 401.33667 618.47998 406.160004 618.47998 413.139984 L 618.47998 432.660004 L 611.630005 432.660004 Z"/>
    <path id="path17" fill="#000000" stroke="none" d="M 737.23999 385.279999 L 732.829956 389.829987 C 729.169983 386.269989 725.593323 384.48999 722.099976 384.48999 C 719.977722 384.450745 717.9245 385.244019 716.380005 386.700012 C 714.878418 387.982544 714.009583 389.855255 714 391.829987 C 714.051208 393.663544 714.76123 395.417267 716 396.769989 C 717.333313 398.369995 720.080017 400.246674 724.23999 402.399994 C 729.339966 405.06665 732.803284 407.606659 734.630005 410.019989 C 736.409241 412.44516 737.35321 415.382324 737.320007 418.389984 C 737.400269 422.569305 735.732971 426.59256 732.719971 429.48999 C 729.66626 432.515747 725.507202 434.159851 721.209961 434.040009 C 718.166199 434.048828 715.160278 433.364899 712.419983 432.040009 C 709.709473 430.76828 707.335693 428.877472 705.48999 426.519989 L 709.789978 421.619995 C 713.289978 425.573334 717 427.546661 720.919983 427.540009 C 723.507019 427.598846 726.016113 426.652557 727.919983 424.899994 C 729.748657 423.354919 730.805481 421.083984 730.809998 418.690002 C 730.820068 416.7742 730.142334 414.918396 728.899963 413.459991 C 727.619995 411.959991 724.743286 410.06665 720.269958 407.779999 C 715.469971 405.313324 712.203308 402.869995 710.469971 400.450012 C 708.73938 398.043213 707.827942 395.144073 707.869995 392.179993 C 707.766418 388.389374 709.270203 384.731659 712.01001 382.109985 C 714.816589 379.423889 718.587219 377.981995 722.469971 378.109985 C 727.349976 378.069977 732.273315 380.459991 737.23999 385.279999 Z"/>
    <path id="path18" fill="#000000" stroke="none" d="M 779.559998 378.049988 C 787.333496 377.865601 794.791809 381.122681 799.940002 386.950012 C 809.90033 397.994476 809.71759 414.834229 799.519958 425.660004 C 794.34668 431.220001 787.679993 434 779.519958 434 C 771.359985 434 764.693298 431.220001 759.519958 425.660004 C 749.324341 414.852814 749.141541 398.026123 759.099976 387 C 764.254395 381.128967 771.749939 377.850159 779.559998 378.049988 Z M 779.559998 384.75 C 773.996033 384.690338 768.665283 386.981689 764.880005 391.059998 C 760.856689 395.093292 758.638123 400.583862 758.72998 406.279999 C 758.710938 410.047943 759.672424 413.756042 761.519958 417.040009 C 763.283569 420.253326 765.899536 422.917786 769.079956 424.73999 C 775.581543 428.35379 783.488403 428.35379 789.98999 424.73999 C 793.17041 422.917786 795.786438 420.253326 797.549988 417.040009 C 799.397583 413.756042 800.35907 410.047943 800.339966 406.279999 C 800.448181 400.567108 798.223877 395.056793 794.179993 391.019989 C 790.396301 386.967834 785.083679 384.692566 779.539978 384.75 Z"/>
    <path id="path19" fill="#000000" stroke="none" d="M 846.869995 358.880005 L 846.869995 365.579987 C 844.848755 364.617371 842.656189 364.066681 840.419983 363.959991 C 839.256287 363.915527 838.10321 364.195984 837.089966 364.769989 C 836.331665 365.171082 835.742615 365.831146 835.429993 366.630005 C 835.112488 368.478638 834.998474 370.356506 835.089966 372.230011 L 835.089966 379.420013 L 846.200012 379.420013 L 846.200012 385.339996 L 835.079956 385.339996 L 835.079956 432.630005 L 828.22998 432.630005 L 828.22998 385.339996 L 821.22998 385.339996 L 821.22998 379.420013 L 828.22998 379.420013 L 828.22998 371.100006 C 828.22998 367.293335 828.579956 364.573334 829.279968 362.940002 C 830.009521 361.273163 831.262939 359.889832 832.849976 359 C 834.708496 357.963257 836.812744 357.448425 838.940002 357.51001 C 841.634705 357.590637 844.304443 358.05188 846.869995 358.880005 Z"/>
    <path id="path20" fill="#000000" stroke="none" d="M 867.419983 359.660004 L 874.269958 359.660004 L 874.269958 379.420013 L 885.130005 379.420013 L 885.130005 385.339996 L 874.22998 385.339996 L 874.22998 432.630005 L 867.419983 432.630005 L 867.419983 385.339996 L 858.079956 385.339996 L 858.079956 379.420013 L 867.419983 379.420013 Z"/>
    <path id="path21" fill="#000000" stroke="none" d="M 893.179993 379.420013 L 900.179993 379.420013 L 916.48999 418.049988 L 933.48999 379.420013 L 934.72998 379.420013 L 951.820007 418.049988 L 968.419983 379.420013 L 975.539978 379.420013 L 952.429993 432.630005 L 951.159973 432.630005 L 934.159973 394.529999 L 917.159973 432.630005 L 915.889954 432.630005 Z"/>
    <path id="path22" fill="#000000" stroke="none" d="M 1041.630005 379.420013 L 1041.630005 432.630005 L 1034.880005 432.630005 L 1034.880005 423.480011 C 1032.26123 426.767883 1028.967041 429.455109 1025.220093 431.359985 C 1014.766052 436.352051 1002.292603 434.118896 994.219971 425.809998 C 988.961365 420.526184 986.074036 413.333252 986.219971 405.880005 C 986.102295 398.497711 989.019592 391.390625 994.289978 386.220001 C 999.338928 380.911072 1006.374207 377.949799 1013.700012 378.049988 C 1017.822449 377.991425 1021.895935 378.949677 1025.560059 380.839996 C 1029.280762 382.855164 1032.473877 385.71933 1034.880005 389.200012 L 1034.880005 379.420013 Z M 1014.259949 384.649994 C 1006.675842 384.594574 999.672302 388.703003 996.019958 395.350006 C 992.193481 402.002319 992.193481 410.187683 996.019958 416.839996 C 997.831665 420.158905 1000.510254 422.923859 1003.769958 424.839996 C 1006.918335 426.723724 1010.521057 427.712585 1014.190002 427.700012 C 1017.927307 427.701813 1021.599792 426.722504 1024.840088 424.859985 C 1028.09021 423.083496 1030.775757 420.42923 1032.590088 417.200012 C 1034.421265 413.862335 1035.35498 410.106598 1035.300049 406.299988 C 1035.456177 400.543823 1033.260864 394.972382 1029.220093 390.869995 C 1025.32251 386.795959 1019.897034 384.540192 1014.259949 384.649994 Z"/>
    <path id="path23" fill="#000000" stroke="none" d="M 1059.420044 379.420013 L 1066.420044 379.420013 L 1066.420044 387.190002 C 1068.155029 384.49469 1070.396362 382.16156 1073.02002 380.320007 C 1075.156372 378.865143 1077.675537 378.075287 1080.26001 378.049988 C 1082.405396 378.12085 1084.496216 378.744293 1086.330078 379.859985 L 1082.76001 385.630005 C 1081.626465 385.084351 1080.39624 384.76828 1079.140015 384.700012 C 1076.666138 384.778687 1074.311401 385.781219 1072.540039 387.51001 C 1070.420044 389.389984 1068.803345 392.299988 1067.690063 396.23999 C 1066.850098 399.273346 1066.426758 405.403351 1066.420044 414.630005 L 1066.420044 432.630005 L 1059.420044 432.630005 Z"/>
    <path id="path24" fill="#000000" stroke="none" d="M 1141.580078 414.970001 L 1147.350098 417.970001 C 1145.717896 421.337372 1143.496216 424.385406 1140.790039 426.970001 C 1138.359009 429.226166 1135.5177 430.994812 1132.420044 432.179993 C 1129.053101 433.41803 1125.486938 434.024811 1121.900024 433.970001 C 1113.233398 433.970001 1106.443359 431.123322 1101.530029 425.429993 C 1096.785156 420.127106 1094.170532 413.255798 1094.190063 406.139984 C 1094.119995 399.58609 1096.317383 393.209442 1100.410034 388.089996 C 1105.66333 381.383331 1112.693359 378.026672 1121.5 378.019989 C 1130.579956 378.019989 1137.82666 381.459991 1143.23999 388.339996 C 1147.093384 393.200012 1149.050049 399.263336 1149.109985 406.529999 L 1101.230103 406.529999 C 1101.363403 412.709991 1103.340088 417.776672 1107.160034 421.730011 C 1110.826172 425.618286 1115.967163 427.772736 1121.310059 427.660004 C 1124.009277 427.661316 1126.6875 427.183929 1129.220093 426.25 C 1131.606689 425.403046 1133.819458 424.128967 1135.75 422.48999 C 1138.0625 420.292572 1140.028198 417.75708 1141.580078 414.970001 Z M 1141.580078 400.639984 C 1140.891357 397.469635 1139.526978 394.485107 1137.580078 391.889984 C 1135.715332 389.611633 1133.341553 387.803101 1130.650024 386.609985 C 1127.815186 385.281281 1124.720825 384.598206 1121.590088 384.609985 C 1116.630615 384.502991 1111.816895 386.291138 1108.130005 389.609985 C 1105.383301 392.049988 1103.310059 395.716644 1101.910034 400.609985 Z"/>
</svg>
